<svg width="31" height="31" viewBox="0 0 31 31" fill="none" xmlns="http://www.w3.org/2000/svg">
<path d="M10.5817 24.7688H21.4151V24.4937C20.6567 23.8521 19.8172 23.371 18.8963 23.0506C17.9755 22.7294 17.0095 22.5688 15.9984 22.5688C14.9873 22.5688 14.0213 22.7294 13.1005 23.0506C12.1797 23.371 11.3401 23.8521 10.5817 24.4937V24.7688ZM8.41508 23.5037C9.39008 22.5321 10.5232 21.7665 11.8146 21.2069C13.1052 20.6481 14.4998 20.3688 15.9984 20.3688C17.497 20.3688 18.892 20.6481 20.1833 21.2069C21.4739 21.7665 22.6067 22.5321 23.5817 23.5037V9.36875H8.41508V23.5037ZM15.9984 18.1688C14.9512 18.1688 14.0574 17.7929 13.3172 17.0413C12.5769 16.2896 12.2067 15.3821 12.2067 14.3188C12.2067 13.2554 12.5769 12.3479 13.3172 11.5962C14.0574 10.8446 14.9512 10.4688 15.9984 10.4688C17.0456 10.4688 17.9394 10.8446 18.6797 11.5962C19.4199 12.3479 19.7901 13.2554 19.7901 14.3188C19.7901 15.3821 19.4199 16.2896 18.6797 17.0413C17.9394 17.7929 17.0456 18.1688 15.9984 18.1688ZM15.9984 15.9688C16.4498 15.9688 16.8333 15.8082 17.1489 15.487C17.4652 15.1665 17.6234 14.7771 17.6234 14.3188C17.6234 13.8604 17.4652 13.471 17.1489 13.1505C16.8333 12.8293 16.4498 12.6688 15.9984 12.6688C15.547 12.6688 15.1635 12.8293 14.8479 13.1505C14.5316 13.471 14.3734 13.8604 14.3734 14.3188C14.3734 14.7771 14.5316 15.1665 14.8479 15.487C15.1635 15.8082 15.547 15.9688 15.9984 15.9688ZM7.24841 26.9688C6.69613 26.9688 6.24841 26.521 6.24841 25.9688V8.16875C6.24841 7.61647 6.69613 7.16875 7.24841 7.16875H9.49841V5.96875C9.49841 5.41647 9.94613 4.96875 10.4984 4.96875H10.6651C11.2174 4.96875 11.6651 5.41647 11.6651 5.96875V7.16875H20.3317V5.96875C20.3317 5.41647 20.7795 4.96875 21.3317 4.96875H21.4984C22.0507 4.96875 22.4984 5.41647 22.4984 5.96875V7.16875H24.7484C25.3007 7.16875 25.7484 7.61647 25.7484 8.16875V25.9687C25.7484 26.521 25.3007 26.9688 24.7484 26.9688H7.24841Z" fill="#CDCDCD"/>
</svg>
